<svg xmlns="http://www.w3.org/2000/svg" xmlns:xlink="http://www.w3.org/1999/xlink" preserveAspectRatio="xMidYMid" width="868" height="592.5" viewBox="0 0 868 592.5">
  <defs>
    <style>
      .cls-1, .cls-11, .cls-12, .cls-5, .cls-6, .cls-9 {
        fill: #fff;
      }

      .cls-1, .cls-11, .cls-12, .cls-2, .cls-5, .cls-8, .cls-9 {
        stroke: #7dbb82;
      }

      .cls-1, .cls-11, .cls-12, .cls-2, .cls-5, .cls-9 {
        stroke-linejoin: round;
      }

      .cls-1, .cls-11, .cls-12, .cls-5, .cls-9 {
        stroke-width: 12px;
      }

      .cls-1 {
        filter: url(#filter-chain-1);
      }

      .cls-2 {
        stroke-width: 1px;
        filter: url(#filter-chain-2);
      }

      .cls-2, .cls-3, .cls-4, .cls-7 {
        font-size: 18.38px;
      }

      .cls-3, .cls-4 {
        text-anchor: middle;
      }

      .cls-4 {
        fill: #27333a;
      }

      .cls-4, .cls-6 {
        font-family: "BookmanOldStyle-Bold";
        font-weight: bold;
        text-transform: uppercase;
      }

      .cls-5 {
        filter: url(#filter-chain-3);
      }

      .cls-6 {
        font-size: 16.38px;
      }

      .cls-10, .cls-8 {
        fill: #7dbb82;
        fill-rule: evenodd;
      }

      .cls-8 {
        stroke-width: 11px;
      }

      .cls-9 {
        filter: url(#filter-chain-5);
      }

      .cls-11 {
        filter: url(#filter-chain-7);
      }

      .cls-12 {
        filter: url(#filter-chain-11);
      }
    </style>

    <filter id="filter-chain-1" filterUnits="userSpaceOnUse">
      <feFlood flood-color="#87b1ca"/>
      <feComposite operator="in" in2="SourceGraphic"/>
      <feBlend in2="SourceGraphic" result="solidFill"/>
      <feOffset in="SourceAlpha"/>
      <feGaussianBlur stdDeviation="2.646" result="innerShadowBlur"/>
      <feFlood flood-opacity="0.35"/>
      <feComposite operator="out" in2="innerShadowBlur"/>
      <feComposite operator="in" in2="SourceAlpha"/>
      <feBlend mode="multiply" in2="solidFill" result="innerShadow"/>
    </filter>
    <filter id="filter-chain-2" filterUnits="userSpaceOnUse">
      <feOffset dy="3" in="SourceAlpha"/>
      <feGaussianBlur stdDeviation="2.449" result="dropBlur"/>
      <feFlood flood-opacity="0.35"/>
      <feComposite operator="in" in2="dropBlur" result="dropShadowComp"/>
      <feComposite in="SourceGraphic" result="shadowed"/>
      <feFlood flood-color="#fff"/>
      <feComposite operator="in" in2="SourceGraphic"/>
      <feBlend in2="shadowed" result="solidFill"/>
    </filter>
    <path id="text-path-1" d="M 893 768 C 922.823 768 947 792.177 947 822 C 947 851.823 922.823 876 893 876 C 863.177 876 839 851.823 839 822 Z"/>
    <filter id="filter-chain-3" filterUnits="userSpaceOnUse">
      <feFlood flood-color="#a4ade6"/>
      <feComposite operator="in" in2="SourceGraphic"/>
      <feBlend in2="SourceGraphic" result="solidFill"/>
      <feOffset in="SourceAlpha"/>
      <feGaussianBlur stdDeviation="2.646" result="innerShadowBlur"/>
      <feFlood flood-opacity="0.35"/>
      <feComposite operator="out" in2="innerShadowBlur"/>
      <feComposite operator="in" in2="SourceAlpha"/>
      <feBlend mode="multiply" in2="solidFill" result="innerShadow"/>
    </filter>
    <path id="text-path-2" d="M 741.5 365 C 779.884 365 811 396.116 811 434.5 C 811 472.884 779.884 504 741.5 504 C 703.116 504 672 472.884 672 434.5 Z"/>
    <filter id="filter-chain-5" filterUnits="userSpaceOnUse">
      <feFlood flood-color="#a4dfe6"/>
      <feComposite operator="in" in2="SourceGraphic"/>
      <feBlend in2="SourceGraphic" result="solidFill"/>
      <feOffset in="SourceAlpha"/>
      <feGaussianBlur stdDeviation="2.646" result="innerShadowBlur"/>
      <feFlood flood-opacity="0.35"/>
      <feComposite operator="out" in2="innerShadowBlur"/>
      <feComposite operator="in" in2="SourceAlpha"/>
      <feBlend mode="multiply" in2="solidFill" result="innerShadow"/>
    </filter>
    <path id="text-path-3" d="M 690.5 577 C 733.302 577 768 611.698 768 654.5 C 768 697.302 733.302 732 690.5 732 C 647.698 732 613 697.302 613 654.5 Z"/>
    <filter id="filter-chain-7" filterUnits="userSpaceOnUse">
      <feFlood flood-color="#87b1ca"/>
      <feComposite operator="in" in2="SourceGraphic"/>
      <feBlend in2="SourceGraphic" result="solidFill"/>
      <feOffset in="SourceAlpha"/>
      <feGaussianBlur stdDeviation="2.646" result="innerShadowBlur"/>
      <feFlood flood-opacity="0.35"/>
      <feComposite operator="out" in2="innerShadowBlur"/>
      <feComposite operator="in" in2="SourceAlpha"/>
      <feBlend mode="multiply" in2="solidFill" result="innerShadow"/>
    </filter>
    <path id="text-path-4" d="M 1166 768 C 1195.82 768 1220 792.177 1220 822 C 1220 851.823 1195.82 876 1166 876 C 1136.18 876 1112 851.823 1112 822 Z"/>
    <path id="text-path-5" d="M 1317.5 365 C 1355.88 365 1387 396.116 1387 434.5 C 1387 472.884 1355.88 504 1317.5 504 C 1279.12 504 1248 472.884 1248 434.5 Z"/>
    <filter id="filter-chain-11" filterUnits="userSpaceOnUse">
      <feFlood flood-color="#a4dfe6"/>
      <feComposite operator="in" in2="SourceGraphic"/>
      <feBlend in2="SourceGraphic" result="solidFill"/>
      <feOffset in="SourceAlpha"/>
      <feGaussianBlur stdDeviation="2.646" result="innerShadowBlur"/>
      <feFlood flood-opacity="0.35"/>
      <feComposite operator="out" in2="innerShadowBlur"/>
      <feComposite operator="in" in2="SourceAlpha"/>
      <feBlend mode="multiply" in2="solidFill" result="innerShadow"/>
    </filter>
    <path id="text-path-6" d="M 1368.5 577 C 1411.3 577 1446 611.698 1446 654.5 C 1446 697.302 1411.3 732 1368.5 732 C 1325.7 732 1291 697.302 1291 654.5 Z"/>
  </defs>
  <g>
    <g style="fill: #fff; filter: url(#filter-chain-1)">
      <circle cx="300" cy="477" r="54" id="circle-1" style="stroke: inherit; filter: none; fill: inherit" class="cls-1"/>
    </g>
    <use xlink:href="#circle-1" style="stroke: #7dbb82; filter: none; fill: none"/>
    <g style="fill: ; filter: url(#filter-chain-2)">
      <text id="text-1" style="stroke: inherit; filter: none; fill: inherit" class="cls-2"/>    </g>
    <use xlink:href="#text-1" style="stroke: #7dbb82; filter: none; fill: none"/>
<textPath xlink:href="#text-path-1" startOffset="50%" class="cls-3"><tspan class="cls-4">EVENTS</tspan></textPath>    <g style="fill: #fff; filter: url(#filter-chain-3)">
      <circle cx="148.5" cy="89.5" r="69.5" id="circle-2" style="stroke: inherit; filter: none; fill: inherit" class="cls-5"/>
    </g>
    <use xlink:href="#circle-2" style="stroke: #7dbb82; filter: none; fill: none"/>
    <g style="fill: ; filter: url(#filter-chain-2)">
      <text id="text-2" style="stroke: inherit; filter: none; fill: inherit" class="cls-2"/>    </g>
    <use xlink:href="#text-2" style="stroke: #7dbb82; filter: none; fill: none"/>
<textPath xlink:href="#text-path-2" startOffset="50%" class="cls-3"><tspan class="cls-3"><tspan class="cls-6">             <tspan class="cls-7">MEMBERS</tspan></tspan></tspan></textPath>    <path d="M213.362,123.648 L223.250,122.491 C223.250,122.491 170.259,189.791 186.469,307.058 C202.387,422.203 287.511,587.354 287.511,587.354 L277.623,588.511 C277.623,588.511 192.499,423.360 176.582,308.215 C160.371,190.948 213.362,123.648 213.362,123.648 Z" class="cls-8"/>
    <g style="fill: #fff; filter: url(#filter-chain-5)">
      <circle cx="97.5" cy="309.5" r="77.5" id="circle-3" style="stroke: inherit; filter: none; fill: inherit" class="cls-9"/>
    </g>
    <use xlink:href="#circle-3" style="stroke: #7dbb82; filter: none; fill: none"/>
    <g style="fill: ; filter: url(#filter-chain-2)">
      <text id="text-3" style="stroke: inherit; filter: none; fill: inherit" class="cls-2"/>    </g>
    <use xlink:href="#text-3" style="stroke: #7dbb82; filter: none; fill: none"/>
<textPath xlink:href="#text-path-3" startOffset="50%" class="cls-3"><tspan class="cls-4">     DISCUSSIONS</tspan></textPath>    <path d="M190.297,558.994 C212.777,558.940 222.341,554.100 226.370,550.436 C236.466,553.199 247.306,555.286 257.271,555.386 C264.419,555.461 269.957,538.576 258.145,544.259 C252.564,546.945 241.660,545.763 229.972,542.727 C230.525,536.790 229.332,523.564 214.501,502.608 C187.878,464.986 122.189,475.533 88.992,484.662 C134.819,502.439 129.624,559.139 190.297,558.994 Z" class="cls-10"/>
    <path d="M187.881,201.259 C183.054,211.315 183.148,216.631 183.912,219.220 C180.502,223.136 177.232,227.531 175.038,231.962 C173.462,235.140 179.794,241.249 179.809,234.748 C179.816,231.676 182.696,227.058 186.571,222.489 C189.099,224.014 195.252,226.328 207.793,224.213 C230.309,220.416 239.782,188.794 242.876,171.995 C225.063,188.645 200.909,174.118 187.881,201.259 Z" class="cls-10"/>
    <g style="fill: #fff; filter: url(#filter-chain-7)">
      <circle cx="568" cy="477" r="54" id="circle-4" style="stroke: inherit; filter: none; fill: inherit" class="cls-11"/>
    </g>
    <use xlink:href="#circle-4" style="stroke: #7dbb82; filter: none; fill: none"/>
    <g style="fill: ; filter: url(#filter-chain-2)">
      <text id="text-4" style="stroke: inherit; filter: none; fill: inherit" class="cls-2"/>    </g>
    <use xlink:href="#text-4" style="stroke: #7dbb82; filter: none; fill: none"/>
<textPath xlink:href="#text-path-4" startOffset="50%" class="cls-3"><tspan class="cls-4">LOCALPEDIA</tspan></textPath>    <g style="fill: #fff; filter: url(#filter-chain-3)">
      <circle cx="719.5" cy="89.5" r="69.5" id="circle-5" style="stroke: inherit; filter: none; fill: inherit" class="cls-5"/>
    </g>
    <use xlink:href="#circle-5" style="stroke: #7dbb82; filter: none; fill: none"/>
    <g style="fill: ; filter: url(#filter-chain-2)">
      <text id="text-5" style="stroke: inherit; filter: none; fill: inherit" class="cls-2"/>    </g>
    <use xlink:href="#text-5" style="stroke: #7dbb82; filter: none; fill: none"/>
<textPath xlink:href="#text-path-5" startOffset="50%" class="cls-3"><tspan class="cls-4"> Local Business</tspan></textPath>    <path d="M653.638,123.648 L643.750,122.491 C643.750,122.491 696.741,189.791 680.531,307.058 C664.613,422.203 579.489,587.354 579.489,587.354 L589.376,588.511 C589.376,588.511 674.501,423.360 690.418,308.215 C706.629,190.948 653.638,123.648 653.638,123.648 Z" class="cls-8"/>
    <g style="fill: #fff; filter: url(#filter-chain-11)">
      <circle cx="770.5" cy="309.5" r="77.5" id="circle-6" style="stroke: inherit; filter: none; fill: inherit" class="cls-12"/>
    </g>
    <use xlink:href="#circle-6" style="stroke: #7dbb82; filter: none; fill: none"/>
    <g style="fill: ; filter: url(#filter-chain-2)">
      <text id="text-6" style="stroke: inherit; filter: none; fill: inherit" class="cls-2"/>    </g>
    <use xlink:href="#text-6" style="stroke: #7dbb82; filter: none; fill: none"/>
<textPath xlink:href="#text-path-6" startOffset="50%" class="cls-3"><tspan class="cls-4">OPPORTUNITIES</tspan></textPath>    <path d="M667.278,557.994 C644.926,557.941 635.416,553.159 631.410,549.539 C621.372,552.269 610.593,554.331 600.685,554.430 C593.577,554.503 588.071,537.822 599.816,543.437 C605.365,546.090 616.207,544.922 627.829,541.923 C627.279,536.058 628.466,522.991 643.212,502.287 C669.684,465.118 734.999,475.539 768.008,484.558 C722.442,502.120 727.606,558.137 667.278,557.994 Z" class="cls-10"/>
    <path d="M668.119,201.259 C672.945,211.315 672.852,216.631 672.088,219.220 C675.498,223.136 678.767,227.531 680.962,231.962 C682.538,235.140 676.206,241.249 676.191,234.748 C676.184,231.676 673.304,227.058 669.429,222.489 C666.901,224.014 660.748,226.328 648.206,224.213 C625.691,220.416 616.218,188.794 613.124,171.995 C630.937,188.645 655.091,174.118 668.119,201.259 Z" class="cls-10"/>
  </g>
</svg>
