<?xml version="1.0" standalone="no"?>
<!DOCTYPE svg PUBLIC "-//W3C//DTD SVG 20010904//EN"
 "http://www.w3.org/TR/2001/REC-SVG-20010904/DTD/svg10.dtd">
<svg version="1.0" xmlns="http://www.w3.org/2000/svg"
 width="500.000000pt" height="500.000000pt" viewBox="0 0 500.000000 500.000000"
 preserveAspectRatio="xMidYMid meet">
<metadata>
Created by potrace 1.11, written by Peter Selinger 2001-2013
</metadata>
<g transform="translate(0.000000,500.000000) scale(0.100000,-0.100000)"
fill="#000000" stroke="none">
<path d="M1229 4280 c-427 -27 -893 -126 -958 -204 -10 -12 -8 -18 16 -32 148
-92 211 -141 314 -243 161 -162 239 -284 438 -685 166 -336 244 -465 344 -572
120 -129 278 -222 453 -266 78 -20 114 -23 284 -22 173 0 209 3 321 27 70 15
180 43 245 63 66 20 128 39 139 41 35 7 228 -270 351 -501 60 -114 81 -136
129 -136 71 1 168 74 168 128 0 34 -96 228 -170 342 -262 402 -687 781 -1248
1109 -174 102 -556 291 -732 362 -73 29 -131 54 -130 56 2 1 68 -11 148 -27
524 -106 1048 -345 1464 -667 119 -93 304 -264 385 -356 60 -69 66 -73 74 -53
4 11 6 111 3 221 -5 161 -11 224 -31 321 -136 649 -560 985 -1357 1078 -161
19 -478 27 -650 16z"/>
<path d="M3139 3797 c137 -182 219 -382 250 -610 17 -122 13 -321 -10 -573
l-22 -231 67 -107 c81 -129 174 -317 183 -368 10 -66 -14 -127 -76 -189 -68
-67 -142 -99 -232 -99 -107 0 -161 42 -229 178 -53 108 -150 267 -223 364
l-57 77 -42 -15 c-24 -8 -95 -28 -159 -45 -399 -101 -742 -84 -1009 51 -161
81 -309 216 -420 381 -34 52 -66 95 -70 97 -28 11 -32 -321 -5 -448 175 -845
1265 -1373 2288 -1110 111 28 112 28 137 9 279 -210 615 -359 811 -359 l50 0
-34 42 c-101 126 -170 343 -193 609 l-6 75 84 85 c279 279 418 636 380 978
-16 146 -51 262 -117 397 -133 272 -356 492 -665 657 -189 101 -468 189 -674
213 l-57 7 50 -66z"/>
</g>
</svg>
